<?xml version="1.0" encoding="UTF-8"?>
<svg version="1.1" viewBox="0 0 2048 2048" width="512" height="512" xmlns="http://www.w3.org/2000/svg">
<path transform="translate(572,171)" d="m0 0h903l33 3 31 5 32 8 33 11 26 11 26 13 22 13 22 15 17 13 13 11 8 7 13 12 10 10 7 8 10 11 13 17 9 12 10 15 12 20 9 16 13 28 12 32 8 28 6 27 4 25 2 21 1 17v890l-3 36-5 30-7 30-12 36-8 20-14 29-13 23-16 24-12 16-9 11-12 14-7 7-1 2h-2l-2 4-15 14-11 10-14 11-13 10-21 14-22 13-23 12-20 9-27 10-23 7-30 7-32 5-37 3h-885l-30-2-35-5-30-7-29-9-24-9-24-11-25-13-18-11-16-11-12-9-14-11-10-9-8-7-14-13-7-8-7-7-9-11-10-12-13-18-10-15-9-15-12-22-14-31-9-24-8-27-6-27-5-33-2-21-1-21v-868l2-34 4-30 7-34 8-28 10-27 10-23 11-22 12-20 11-17 14-19 13-16 9-10 7-8 19-19 8-7 14-12 16-12 16-11 19-12 18-10 24-12 30-12 25-8 28-7 27-5 26-3z" fill="#6568FB"/>
<path transform="translate(1100,660)" d="m0 0h17l15 4 12 6 9 7 7 7 7 11 5 13 1 5v22l-8 30-16 55-34 119-27 94-60 210-17 60-12 40-7 14-6 8-7 7-13 8-16 6-7 1h-8l-15-3-12-5-9-6-7-6-10-14-5-12-2-9v-17l5-21 22-77 11-39 7-24 48-168 15-53 64-224 5-13 9-14 7-7 14-9 13-5z" fill="#AEB0FD"/>
<path transform="translate(757,789)" d="m0 0h19l13 3 16 8 10 9 6 7 6 11 4 11 1 5v20l-3 12-8 15-13 15-117 117 1 5 123 123 10 14 5 12 2 8v20l-4 15-7 12-8 10-12 9-13 6-12 3h-15l-13-3-16-8-10-8-170-170-9-11-7-14-3-11v-20l3-12 8-15 11-12 171-171 10-7 13-6z" fill="#ECEDFE"/>
<path transform="translate(1270,789)" d="m0 0h17l16 4 10 5 11 8 8 7 7 8 139 139 7 6v2l3 1 7 8 8 9 7 12 4 12 1 5v18l-4 14-6 11-10 13-170 170-11 8-14 7-12 3h-14l-16-4-14-7-11-9-8-11-5-10-4-16v-17l4-15 8-13 12-14 118-118-1-4-127-127-9-14-4-12-1-6v-19l3-12 6-12 9-11 11-9 14-7z" fill="#ECEDFE"/>
<path transform="translate(1854,1410)" d="m0 0 4 2 1 3h-3v5l5 2 2 6v5h7l-2 6 2 9v13l1 7 1 11-2 3h-2v9l2 14 2 6v8l-6 31-7 26-10 29-11 26-13 26-10 17-16 24-12 16-9 11-12 14-7 7-1 2h-2l-2 4-15 14-11 10-14 11-13 10-21 14-22 13-23 12-20 9-27 10-23 7-30 7-32 5-21 2h-24l-15-1v-3l-8-1-1-2-12-1-1-3 1-1 10-1 2-2 32-1 4-1h19l6-2h9l13-3 11-2h10v-2l11-4 23-7 12-4 23-10 12-8 12-6 7-4 4-2 1-2 16-6 2-3 9-2 5-5 5-3 4-2 1-2h2v-2l8-2 1-3 8-6 6-3 8-8 10-7 8-6 5-5 14-16 4-5 7-8 7-9 2-3h2l1-6 10-16 2-6 2-4 2-1v-3l3-2 1-7v-4h2l-1-5 3-8 1-7 3-3 1-5-1-3h2l2-5 2-3-2-2v-4h2l2-4 1-4-1-3 2-4 3-1-2-7 3-1v-2l4-1 1-6-3-1 1-6 5-2 1-9v-3h-2l1-5 2 1 2-2-1-3-3-1 1-5 2-8-1-11-3-15 2-7v-3h3v-2l-2-1 1-4v-4l2-5 2-4-1-3 1-3h2v-11l2-12 3-4 2-7 1-8 2 4 4 1-2-6-3-1-1-6 8-3z" fill="#414CF7"/>
<path transform="translate(204,430)" d="m0 0 4 2v2l-4 1 3 3 1 8-3 15-3 6-2 8-3 7-2 7-2 3-3 13-2 5-1 9-3 8-2 17-1 2-2 15-3 15-2 2v12l-1 4-1 15-1 106h-1v-125l2-34 4-30 7-34 8-28 10-27z" fill="#ADAFFC"/>
<path transform="translate(1832,733)" d="m0 0 4 3-2 3 5 4h-2l-1 5h-3l-2 5v10h1v-2l8-1-2-6 1-5h2l3-10v-2l3 1v8l-3 5-1 1 1 5 1 11-5 5v4h2v2h2l-1 8-1 6-1 2-1 5 1 2-2 1 2 2-4 4-6-2-5 6-3 2-3 8-2-3 2-20 1-2v-12l1-5 1-10 2-4 1-8 2-5-1-10 4-7 1-1z" fill="#414CF7"/>
<path transform="translate(1862,730)" d="m0 0 1 3 2 1v4l-4 1 2 4 4 1 3 4v9l1 1v10l2 17v53l-1 11-2-3-1-11-1-17v-43h-2l-3-12-1-2v-8l-5 1v2l-5-1-2-5h-2l1-3 3-1 3-6 3-1 1-5z" fill="#414CF7"/>
<path transform="translate(273,319)" d="m0 0 1 2 3 1-1 5-4 3h-2l-2 4-4 5-3 6-4 6-3 6-4 4-3 5-3 2-2 5-4 8-5 5-7 10-2 3-5 1 2-6 13-22 11-17 14-19 13-16z" fill="#AEB0FD"/>
<path transform="translate(801,1868)" d="m0 0 13 1h61l12 1h26l8 1v1l-40 1h9l9 1 12 1v1h-51l-6-2-13 1-4-1-2 1v-2h-11l-16-1-8-1z" fill="#414CF7"/>
<path transform="translate(572,171)" d="m0 0h17l-1 3-7 1-5 1-5 3-9 1-3 1-13-2 1-3 9-1 2-2v-1z" fill="#AEB0FD"/>
<path transform="translate(1748,977)" d="m0 0h2l1 12h-3v2l-4-1-2-1v3l-9 5-3 4-1 4h-3v-2h2v-5h2l1-4 3-3 1-3h2v-2l5-1v-2h2v-2h2v-2h2z" fill="#434EF7"/>
<path transform="translate(1799,1573)" d="m0 0h2l1 4-4 5h-2v2h2l-1 6-6 9-6 6 1-9 4-7 1-2h2l2-10 4-3z" fill="#414CF7"/>
<path transform="translate(219,401)" d="m0 0 1 3-1 3h-3l1 7-3 9-3 3-2 4h-3l-1-3 12-25z" fill="#AEB0FD"/>
<path transform="translate(1754,994)" d="m0 0 3 3 1 3 5 4v2h2v-2h3l-2 7h-2v5l-2-1v-4h-2v-2l-5-1-2-6v-7z" fill="#414CF7"/>
<path transform="translate(526,176)" d="m0 0 4 1h-2l-1 5-13 5-3-1-1-7z" fill="#A3A6FC"/>
<path transform="translate(481,186)" d="m0 0h2v2l4 1 1 5-5 4-5-1-1-4v-6z" fill="#ADAFFC"/>
<path transform="translate(505,180)" d="m0 0 4 1-1 5-3 1 1 2h-8l-4 3-3-1v-6l14-2z" fill="#AEB0FD"/>
<path transform="translate(309,282)" d="m0 0m-2 1 2 1-22 22-3 5-3 3-2 5h-2l-1-4 15-16z" fill="#878AFC"/>
<path transform="translate(1748,977)" d="m0 0h2l1 12h-3v2l-4-1-2-2v-3-2h2v-2h2v-2h2z" fill="#414CF7"/>
<path transform="translate(1489,1870)" d="m0 0 8 1 6 2v1l-21 2h-9v-1l9-2z" fill="#686BFB"/>
<path transform="translate(468,192)" d="m0 0h7l1 2-2 5-5 2-3-2z" fill="#AEB0FD"/>
<path transform="translate(545,1056)" d="m0 0 4 1 5 5 1 7-6-3-2-2-2-5z" fill="#F6F6FD"/>
<path transform="translate(1858,761)" d="m0 0h3v8l-3 7-2-1-1-7z" fill="#414CF7"/>
<path transform="translate(1594,1850)" d="m0 0h5l-2 2-18 6-3-1 2-2h3l1-2z" fill="#6A6DFB"/>
<path transform="translate(1229,1230)" d="m0 0h5v2l3 1 1 5-2 1-4-2-3-5z" fill="#FCFCFD"/>
<path transform="translate(1871,1514)" d="m0 0h1l-1 12h-4l-1-6 3-5z" fill="#686BFC"/>
<path transform="translate(776,1868)" d="m0 0h19l4 3h-9l-5-1-9-1z" fill="#414CF7"/>
<path transform="translate(287,303)" d="m0 0v3l-3 5-3 3-2 5h-2l-1-4z" fill="#ACAEFC"/>
<path transform="translate(1758,1013)" d="m0 0 5 4 3 3 2 1-2 3h-2v-2h-2v-2l-4-2z" fill="#414CF7"/>
<path transform="translate(460,196)" d="m0 0h2v6l-4 2-2-1 1-6z" fill="#AEB0FD"/>
<path transform="translate(474,188)" d="m0 0 4 1-1 5-8-2 1-3z" fill="#6D70FC"/>
</svg>
